HIERARCHY
ROOT Hips
{
  OFFSET 0 0 0
  CHANNELS 6 Xposition Yposition Zposition Zrotation Xrotation Yrotation
  JOINT Spine
  {
    OFFSET 0 10.1816 0.131521
    CHANNELS 3 Zrotation Xrotation Yrotation
    JOINT Spine1
    {
      OFFSET 0 10.0835 -1.0008
      CHANNELS 3 Zrotation Xrotation Yrotation
      JOINT Spine2
      {
        OFFSET 0 9.10001 -1.37342
        CHANNELS 3 Zrotation Xrotation Yrotation
        JOINT Neck
        {
          OFFSET 0 16.6717 -2.51617
          CHANNELS 3 Zrotation Xrotation Yrotation
          JOINT Head
          {
            OFFSET 0 9.61788 1.68501
            CHANNELS 3 Zrotation Xrotation Yrotation
            End Site
            {
              OFFSET 0 0 0
            }
          }
        }
        JOINT LeftShoulder
        {
          OFFSET 4.57045 10.946 -2.62799
          CHANNELS 3 Zrotation Xrotation Yrotation
          JOINT LeftArm
          {
            OFFSET 10.5924 -0.524583 -2.23212
            CHANNELS 3 Zrotation Xrotation Yrotation
            JOINT LeftForeArm
            {
              OFFSET 27.8415 -8.94286e-05 3.74589e-05
              CHANNELS 3 Zrotation Xrotation Yrotation
              JOINT LeftHand
              {
                OFFSET 28.3288 -1.74407e-05 3.78045e-05
                CHANNELS 3 Zrotation Xrotation Yrotation
                End Site
                {
                  OFFSET 0 0 0
                }
              }
            }
          }
        }
        JOINT RightShoulder
        {
          OFFSET -4.56997 10.9462 -2.62802
          CHANNELS 3 Zrotation Xrotation Yrotation
          JOINT RightArm
          {
            OFFSET -10.5928 -0.524798 -2.2321
            CHANNELS 3 Zrotation Xrotation Yrotation
            JOINT RightForeArm
            {
              OFFSET -27.8415 -3.30792e-05 1.16763e-05
              CHANNELS 3 Zrotation Xrotation Yrotation
              JOINT RightHand
              {
                OFFSET -28.3288 0 5.5816e-05
                CHANNELS 3 Zrotation Xrotation Yrotation
                End Site
                {
                  OFFSET 0 0 0
                }
              }
            }
          }
        }
      }
    }
  }
  JOINT LeftUpLeg
  {
    OFFSET 8.20778 -6.75171 -1.59956
    CHANNELS 3 Zrotation Xrotation Yrotation
    JOINT LeftLeg
    {
      OFFSET 0 -44.3705 0.284643
      CHANNELS 3 Zrotation Xrotation Yrotation
      JOINT LeftFoot
      {
        OFFSET 0 -44.4279 -2.98219
        CHANNELS 3 Zrotation Xrotation Yrotation
        JOINT LeftToeBase
        {
          OFFSET 0 -8.72867 10.7106
          CHANNELS 3 Zrotation Xrotation Yrotation
          End Site
          {
            OFFSET 0 0 0
          }
        }
      }
    }
  }
  JOINT RightUpLeg
  {
    OFFSET -8.2078 -6.75166 -1.59956
    CHANNELS 3 Zrotation Xrotation Yrotation
    JOINT RightLeg
    {
      OFFSET 0 -44.3705 0.286156
      CHANNELS 3 Zrotation Xrotation Yrotation
      JOINT RightFoot
      {
        OFFSET 0 -44.4277 -2.98379
        CHANNELS 3 Zrotation Xrotation Yrotation
        JOINT RightToeBase
        {
          OFFSET 0 -8.72867 10.7106
          CHANNELS 3 Zrotation Xrotation Yrotation
          End Site
          {
            OFFSET 0 0 0
          }
        }
      }
    }
  }
}
MOTION
Frames:	19
Frame Time:	0.0333333
-1.06236 88.2463 0.6194 0.0546752 -5.4557 -46.3238 -1.96065 9.24292 7.55366 -0.91615 2.17162 1.02474 -0.894674 2.18722 1.01705 4.41896 1.12139 13.174 -3.91062 7.47949 20.6962 -8.61707 0.57256 3.67365 -67.9227 -32.7083 -45.2099 -0.000227646 8.59495e-06 -106.358 -15.7588 4.04096 -6.87556 -5.23542 1.81437 13.2489 64.7892 12.3416 53.0667 6.04449e-05 4.20284e-06 105.988 8.39648 -5.59458 18.5714 18.4118 -27.9237 17.8673 8.07879 58.2101 -13.1888 -14.4928 -21.5775 -13.9739 -1.6981e-07 -1.59404 7.30136e-06 -28.4433 -17.6593 -21.7281 -14.191 57.9081 4.28775 21.3195 -25.5841 1.87803 4.22832e-06 -0.0130009 -8.40609e-07 
-0.33441 87.2983 0.746014 0.103511 -4.46412 -48.022 -2.36235 10.8666 7.91342 -0.661371 2.10808 1.02956 -0.642198 2.12037 1.02975 5.07205 0.58309 13.1276 -6.85711 6.23352 22.637 -8.40063 0.60835 3.36081 -67.8597 -34.0877 -44.3483 -0.000227469 9.17923e-06 -107.505 -15.2138 4.07586 -7.4986 -5.37551 1.81455 14.0048 63.8551 12.3876 53.0891 4.75339e-05 -1.25627e-05 105.928 8.02163 -5.96865 19.2376 21.6124 -29.9929 19.5473 2.79481 62.2854 -9.85524 -11.6645 -21.5727 -10.0331 -4.75938e-06 -3.82827 -2.69701e-07 -28.9204 -20.3493 -22.5728 -16.1202 59.5308 6.19454 21.8282 -25.3505 3.59135 3.48537e-07 -0.0130057 -2.21819e-05 
0.533583 85.9822 1.09333 -0.0996392 -3.51091 -49.4452 -2.43444 12.9837 8.1458 -0.425323 2.15083 1.01829 -0.408505 2.16043 1.02589 5.39609 -0.0143513 13.1797 -9.79709 4.37247 24.6953 -8.37128 0.576076 3.55516 -67.7454 -35.1992 -43.5381 -0.000216078 -1.47892e-05 -108.849 -14.9358 4.35348 -8.08081 -5.59754 1.81477 14.9112 62.9002 12.0812 52.9262 3.05176e-05 -1.97114e-15 106.315 7.8827 -6.26621 19.7133 25.348 -34.1055 21.6053 -3.13843 69.2088 -3.10718 -10.2085 -18.3471 -5.40097 -3.62591e-06 -6.53791 -9.90518e-06 -29.5637 -22.8512 -23.0811 -17.7398 61.699 8.25757 22.3747 -25.4884 4.82708 9.79543e-06 -0.0130064 2.5261e-05 
1.39795 84.3978 1.71727 -0.477735 -2.57098 -49.7491 -1.97761 15.4703 8.08322 -0.23875 2.18587 0.974233 -0.225607 2.19437 0.988279 4.47714 0.0042468 13.4481 -11.6251 1.46266 25.9722 -8.57776 0.489538 4.1727 -67.579 -35.582 -42.6754 -0.000257559 1.04365e-05 -109.998 -15.0084 4.90868 -9.15719 -5.77505 1.82109 15.9352 62.1134 11.6628 51.9852 3.05176e-05 -2.06024e-15 107.075 7.7297 -5.93851 20.4605 28.1947 -39.5261 23.282 -8.02659 75.8487 5.89387 -11.0693 -14.8448 -1.01881 3.37493e-07 -6.87106 -3.26194e-06 -30.4053 -24.5491 -23.6135 -18.9768 64.1432 10.105 23.1939 -26.0282 5.55418 5.18424e-06 -0.0130101 5.0532e-06 
2.01357 82.4621 2.66046 -0.732689 -1.67638 -48.37 -1.40481 17.8661 7.9245 -0.0968784 2.1175 0.924312 -0.0878704 2.12574 0.944014 2.47758 1.1953 13.8195 -12.0101 -2.19049 25.9273 -8.64766 0.42941 4.56818 -67.494 -35.3092 -41.4795 -0.00024514 -5.43227e-06 -110.855 -15.1989 5.54242 -10.7443 -5.71146 1.86823 16.8876 61.8855 11.5514 49.8748 1.37399e-05 9.50795e-06 108.153 7.09058 -4.89636 21.8296 29.0881 -44.9722 23.5209 -8.72608 79.3694 13.0509 -13.3339 -14.1823 2.51536 -1.38612e-06 -6.45998 4.05897e-06 -31.7957 -25.2159 -24.3054 -19.6476 67.1188 10.9269 24.8223 -27.1004 6.36146 -8.0782e-06 -0.0130006 -8.44594e-07 
2.39977 79.8976 3.91229 -2.37674 -1.83703 -45.4939 -1.1036 20.946 8.31846 0.321792 3.75725 1.36857 0.430328 3.04741 0.986589 1.46933 -0.170039 13.8244 -12.5406 -3.87783 24.9726 -8.23292 0.464087 4.22543 -67.5853 -34.4801 -40.7463 -0.000214696 -5.62115e-06 -111.616 -15.3724 5.80001 -11.4268 -5.28393 1.97912 17.5574 62.6238 10.7851 47.8105 1.61917e-05 -5.25361e-06 110.139 6.37379 -4.72374 22.1687 28.858 -48.4757 22.1638 -5.79637 81.4709 15.2859 -15.061 -17.398 4.90722 -3.1801e-06 -5.24546 -1.23944e-06 -33.406 -23.195 -24.4524 -19.4257 71.0018 11.2714 27.0952 -29.1242 7.37072 -8.97432e-06 -0.012999 1.46015e-05 
2.30644 77.3204 5.46933 -3.84395 -2.80709 -41.4193 -1.73629 24.1192 9.45447 0.791605 5.57961 1.9964 1.02173 4.00454 1.13885 1.50121 -2.03156 13.5068 -13.0437 -3.85067 23.5309 -7.55928 0.57933 3.25301 -67.5161 -33.0393 -39.9982 -0.000227766 5.72739e-06 -112.046 -15.381 6.15009 -11.7106 -4.63378 2.13352 18.0591 63.8616 10.4616 45.6623 3.27212e-05 -1.13861e-05 111.907 5.36776 -4.33607 22.721 25.5976 -50.6261 19.0421 4.28481 84.241 5.1641 -14.6698 -22.2284 6.74593 -1.33163e-06 -3.44728 8.0592e-06 -34.923 -19.35 -23.5168 -17.3574 74.5936 9.64297 30.0123 -31.4344 8.26708 -1.30282e-06 -0.854976 2.15177e-05 
1.76207 75.1768 7.39173 -5.06881 -4.55061 -36.4776 -2.81466 27.4642 11.0045 1.24266 7.34665 2.74121 1.59588 4.86795 1.39684 2.07773 -3.41927 13.0586 -13.5043 -3.09223 21.8497 -7.06012 0.703435 2.22812 -67.1346 -30.8629 -39.8272 -0.000228882 2.64961e-15 -112.186 -15.2547 6.90269 -10.9982 -4.23598 2.24883 18.7539 65.3458 10.0129 44.7055 3.05176e-05 2.6395e-15 112.097 4.73489 -3.71294 23.4519 20.3609 -51.7339 14.8095 55.4145 86.8277 -46.1353 -14.7824 -25.7112 7.25746 3.13752e-06 -1.89489 -1.05797e-06 -35.7152 -14.161 -21.5284 -16.1498 77.6584 9.06598 32.039 -31.9252 7.50348 1.83122e-06 -8.0387 -9.90166e-06 
0.733279 73.4001 9.50543 -5.92031 -6.89916 -30.857 -3.88637 30.6309 12.5303 1.70183 9.02036 3.50555 2.16719 5.67086 1.70292 2.01399 -3.17667 12.7009 -13.2284 -3.20424 19.9356 -6.62299 0.788233 1.46047 -66.9128 -28.78 -40.3579 -0.000213623 -1.2777e-12 -112.311 -15.351 7.71796 -9.53445 -4.34649 2.26659 19.6843 66.8381 8.93416 44.9344 1.63183e-05 -5.58676e-06 111.477 4.67705 -3.23788 23.6542 13.8357 -51.5971 9.85214 110.991 84.3208 -103.389 -14.4727 -29.0869 7.33803 -1.21447e-06 -1.6057 1.77098e-06 -36.4671 -10.4207 -18.9082 -25.1956 82.1957 21.5499 25.6287 -25.8079 0.53039 -5.76363e-07 -17.17 -6.80595e-06 
-0.685417 72.2134 11.8982 -6.28269 -9.39133 -24.9748 -4.60392 33.2519 13.8241 2.13305 10.5383 4.20625 2.68984 6.4198 2.01258 1.38084 -1.69419 12.5184 -12.5014 -4.39739 18.4021 -5.94997 0.828751 0.861891 -67.0523 -27.3603 -40.8177 -0.000227667 5.96695e-06 -113.02 -15.5836 8.36754 -8.16523 -4.63409 2.23601 20.5276 68.0202 7.16061 46.6399 -1.52588e-05 -1.13102e-12 109.792 5.06281 -3.31346 23.6677 7.69763 -49.8865 5.17991 121.716 80.8545 -116.091 -13.9058 -32.4803 7.23117 -2.47223e-06 -1.59404 -3.80122e-07 -36.107 -7.53812 -16.2169 -59.9999 85.4593 59.802 15.1841 -15.9846 -6.4158 8.2678 -21.5614 2.38501 
-2.45525 71.7033 14.5699 -6.12994 -11.5064 -19.4706 -5.18205 35.0188 14.9782 2.56134 11.8297 4.80048 3.17834 7.11081 2.32367 0.686164 -0.316019 12.5753 -12.1951 -5.77432 18.04 -5.25886 0.832498 0.495544 -67.356 -26.939 -40.8573 -0.000198364 2.89983e-15 -114.411 -15.5987 8.5621 -7.31139 -4.79413 2.21682 21.0554 68.6918 4.96945 49.5914 3.05176e-05 -9.63242e-15 107.262 5.85913 -4.03389 23.872 4.8666 -47.1412 2.1709 127.808 79.6262 -125.425 -12.1777 -35.8861 7.12639 -3.1597e-07 -1.59402 1.04017e-06 -35.9947 -7.02147 -13.0928 -127.622 83.8997 129.717 9.73667 -10.0103 -9.05794 7.70092e-06 -10.0561 -1.00615e-05 
-4.39031 71.734 17.4856 -5.6175 -12.9195 -14.5837 -5.46006 35.9945 15.7109 2.9267 12.7362 5.20578 3.56801 7.65486 2.58071 0.201125 0.303546 12.8314 -12.988 -6.55032 19.0433 -4.98123 0.807467 0.572598 -67.4945 -27.2375 -40.4772 -0.000212093 6.66001e-06 -115.879 -15.205 8.74553 -6.76517 -5.00747 2.16799 21.2303 68.862 3.55401 51.7696 4.57764e-05 3.87807e-13 105.714 6.75636 -4.66159 24.087 4.33679 -44.1404 0.791063 130.471 79.4364 -131.727 -10 -39.0144 6.93857 1.36708e-06 -1.59403 1.27695e-06 -35.7891 -8.92403 -10.2211 -146.899 79.6222 153.958 7.56754 -5.50714 -9.89134 -6.70244e-06 -5.11802 1.70013e-05 
-6.42407 72.1179 20.4239 -4.67199 -13.6965 -10.0283 -5.13284 36.5749 15.507 3.00796 13.0487 5.2853 3.64503 7.91475 2.65242 -0.626599 0.60449 13.3196 -14.119 -6.91723 20.747 -5.21505 0.758219 1.11053 -67.4488 -27.9988 -39.6996 -0.000196689 6.95025e-06 -117.097 -14.6343 9.31571 -6.31494 -5.51464 2.03931 21.1752 68.708 3.36476 53.2484 4.62658e-05 -3.83349e-06 104.55 7.5431 -4.92686 24.2338 4.93225 -41.3808 0.443361 129.347 79.8283 -134.42 -7.6609 -41.5186 6.69059 -2.35878e-06 -1.59404 -4.27124e-07 -36.1104 -13.1584 -7.91948 -154.376 75.9554 165.736 6.70069 -3.02636 -9.4122 -1.7478e-06 -3.59928 1.2911e-05 
-8.61704 72.7374 23.324 -3.31583 -14.2221 -5.47873 -4.19437 37.0075 14.3063 2.82195 12.8083 5.0108 3.43894 7.94453 2.5089 -2.02419 1.07418 13.9394 -14.6902 -7.32427 22.2705 -5.7668 0.700593 1.82509 -67.4366 -29.0092 -38.7426 -0.000200141 -7.1458e-06 -117.924 -13.9966 9.89007 -6.24109 -6.18799 1.86862 21.0114 68.3801 3.80672 54.9241 -3.12425e-05 6.61199e-06 102.513 8.26077 -5.15514 24.4912 6.12243 -38.7183 0.594681 124.416 80.6729 -133.305 -5.57383 -43.2715 5.9217 3.1224e-07 -1.59403 -7.32653e-07 -37.2608 -18.0413 -6.64375 -156.824 74.8172 168.723 6.96996 -3.02682 -6.52233 -8.57525e-06 -3.04933 8.14023e-06 
-11.1209 73.3577 26.3839 -1.66285 -14.5893 -0.960469 -3.32828 36.719 12.7967 2.67338 12.291 4.51107 3.24997 7.95544 2.27075 -3.44467 1.66318 14.4893 -14.5271 -7.75453 23.2185 -6.49253 0.664854 2.38653 -67.5933 -30.197 -38.0764 -0.000230717 -7.25531e-06 -118.391 -13.3914 9.67117 -6.6519 -6.71848 1.72986 20.6721 67.8709 4.21686 56.4319 -1.64876e-05 1.36379e-05 100.297 8.82254 -5.48878 24.8176 8.11532 -36.0648 1.19657 115.33 81.5811 -124.87 -7.40896 -44.2375 -0.224548 -7.31108e-07 -1.59403 5.89364e-07 -39.2399 -22.6928 -7.05332 -153.244 77.3782 164.703 8.14248 -6.62716 -4.38148 1.36741e-06 -2.64677 -6.48442e-06 
-13.937 73.9547 29.8658 0.0936457 -14.6232 3.33855 -3.23254 35.0996 11.7339 2.82635 11.7381 3.93339 3.33462 8.11736 2.07166 -3.95814 2.09712 14.754 -14.3275 -7.8494 23.8034 -7.42825 0.658278 2.75715 -67.7631 -31.4366 -37.9663 -0.000228882 -3.34277e-15 -118.451 -13.1249 8.5461 -7.28057 -7.02539 1.64267 20.1365 67.0365 5.14708 56.8314 -5.98488e-05 -1.46909e-05 99.2338 8.61805 -5.19142 24.9683 10.8775 -33.3353 2.22531 100.593 82.2748 -110.221 -10.7634 -44.7225 -8.07028 3.13065e-06 -1.59403 9.70691e-07 -41.2338 -26.5858 -9.49067 -132.904 81.8746 143.671 9.83547 -13.2172 -2.16883 -6.02148e-06 -2.15283 -7.06845e-06 
-16.8593 74.7363 33.8097 1.73566 -14.2267 7.41888 -3.75498 32.2354 11.1828 3.21801 11.1888 3.34254 3.63473 8.40335 1.93809 -3.31494 2.3354 14.6926 -14.5626 -7.44421 24.2749 -8.55649 0.646194 3.16059 -67.6945 -32.4912 -38.4395 -0.000227112 7.13381e-06 -117.874 -13.3758 7.12373 -7.77592 -7.21738 1.58626 19.6741 66.2034 6.18754 56.4206 2.97692e-05 9.52842e-06 98.9814 8.14338 -4.70826 25.0607 14.0328 -30.4692 3.35919 77.7385 82.1731 -87.2974 -14.8823 -44.435 -16.4026 -3.73391e-06 -1.59402 1.65144e-06 -42.9127 -28.7151 -13.0237 -74.5045 82.6389 84.4814 12.6328 -17.9371 2.73119 2.68679e-06 -1.70424 5.10909e-06 
-19.915 75.7585 37.9953 3.32127 -13.4586 11.543 -4.44939 28.8516 10.8662 3.56068 10.4708 2.75077 3.87404 8.57567 1.83286 -2.00213 2.56596 14.4343 -14.9081 -6.64001 24.5123 -9.52969 0.600054 3.66685 -67.4087 -33.1762 -39.3273 -0.000213623 -3.12563e-15 -116.452 -13.8824 6.09881 -8.1924 -7.26576 1.56959 19.5715 65.6893 6.85593 55.8348 4.61568e-05 -4.80359e-06 99.0563 8.04107 -4.66424 25.0191 17.1866 -27.6586 4.34045 52.8704 80.2236 -62.1697 -19.435 -42.8693 -24.7262 5.33209e-08 -1.59403 2.43353e-06 -43.8131 -28.7973 -16.4147 -41.139 76.9312 50.2353 16.1494 -21.5615 7.35434 1.32484e-06 -1.6609 2.13877e-07 
-23.2058 76.9764 42.2158 4.96802 -12.4321 16.1942 -4.77418 25.7045 10.4821 3.55521 9.49828 2.16623 3.76779 8.4793 1.71684 -0.848095 2.95622 14.1749 -14.4631 -5.63704 24.023 -9.80925 0.567464 3.90691 -67.311 -33.7193 -40.5896 -0.000212281 6.2584e-06 -114.214 -14.2592 5.6034 -8.91556 -7.12162 1.5981 19.5879 65.5331 7.35419 55.5139 -7.64793e-05 2.37131e-06 98.9404 8.16783 -4.77798 25.0579 20.1453 -25.1872 5.20961 35.5892 75.9767 -44.4885 -23.9023 -39.5929 -32.6474 -2.16197e-07 -1.59402 7.91376e-06 -43.6565 -26.79 -18.404 -28.6515 69.8604 36.895 18.4628 -24.2123 7.72311 8.73629e-07 -4.24662 -2.62958e-06 
